# xmcd CD database file
#
# Track frame offsets:
#	150
#	31307
#	61512
#	98062
#	136422
#	164264
#	183900
#
# Disc length: 3277 seconds
#
# Revision: 0
# Processed by: cddbd v1.5.1PL0 Copyright (c) Steve Scherf et al.
# Submitted via: CDex 1.51
#
DISCID=4e0ccb07
DTITLE=Duke Ellington - Hi-Fi Ellington Uptown
DYEAR=1952
DGENRE=Jazz
TTITLE0=Skin Deep Featuring Louis Bellson, Drums
TTITLE1=The Mooche
TTITLE2=Take The "A" Train
TTITLE3=Perdido
TTITLE4=The Controversial Suite-Before My Time
TTITLE5=The Controversial Suite-Later
TTITLE6=A Tone Parallel To Harlem (The Harlem Suite)
EXTD=YEAR: 1952
EXTT0=
EXTT1=
EXTT2=
EXTT3=
EXTT4=
EXTT5=
EXTT6=
PLAYORDER=
